# xmcd
#
# Track frame offsets:
#	150
#	26019
#	53000
#	71672
#	101407
#	126120
#	144235
#	165952
#	179630
#	196560
#
# Disc length: 2853 seconds
#
# Revision: 1
# Processed by: cddbd v1.5.2PL0 Copyright (c) Steve Scherf et al.
# Submitted via: EZCDAudioConverter 8.0.2.1
#
DISCID=7d0b230a
DTITLE=Various Artist - Nước Mắt Mẹ Tôi
DYEAR=2000
DGENRE=World Pop
TTITLE0=Lê Anh Dũng - Nước Mắt Mẹ Tôi
TTITLE1=Thanh Lan - Tưởng như còn người yêu
TTITLE2=Vũ Khanh - Lời cho người yêu nhỏ
TTITLE3=Hoàng Oanh - ANh đi chiến dịch
TTITLE4=Hương Lan - Mưa đêm ngoại ô
TTITLE5=Thanh Lan - Hoa soan bên thềm cũ
TTITLE6=Chế Linh and Thanh Tuyền - Bài hương ca vô tận
TTITLE7=Lê Uyên, Phương - Hòa bình ơi! Việt Nam ơi
TTITLE8=Việt Dzũng - Một chút quà cho quê hương
TTITLE9=Hoàng Oanh, Lê Uyên, Thanh Tuyền - Trăng thanh bình
EXTD=
EXTT0=
EXTT1=
EXTT2=
EXTT3=
EXTT4=
EXTT5=
EXTT6=
EXTT7=
EXTT8=
EXTT9=
PLAYORDER=
